<?xml version="1.0" encoding="utf-8"?>
<!-- Generator: Adobe Illustrator 25.2.0, SVG Export Plug-In . SVG Version: 6.00 Build 0)  -->
<svg version="1.0" id="Layer_1" xmlns="http://www.w3.org/2000/svg" xmlns:xlink="http://www.w3.org/1999/xlink" x="0px" y="0px"
	 viewBox="0 0 120 90" style="enable-background:new 0 0 120 90;" xml:space="preserve">
<g>
	<path d="M118,27c-0.4-0.4-1-0.4-1.7-0.2c0.9-13.3-1.2-24.1-2.8-24.1c-3.2,0-2,11.8-4.4,11.8s0.6-10-2.8-10
		c-3.4,0-2.9,13.8-8.3,19.2c0,0,1.8-11.7-0.1-13.6c-3.5-3.5-9.6,5.3-8.6,6.3c1.5,1.5,4.9-4.5,6.2-3.2c1,1-1.7,13.7,0.2,15.6
		c-2,2-7.5,1.5-7.5,1.5s3.2-11.5-2.9-17.6c-4.5-4.5-7.7,1.8-7.7,8.3s6,11.5,6,11.5S82.9,36,80,36c-3.6,0-4.1-15.7-11-15.7
		c-3.4,0-5.5,4.6-5.5,4.6s-1.1-2.1-5.4-2.1c-5.1,0-10.2,5.7-10.2,5.7c-4,0-6.9,2.9-6.9,2.9s-2.1-8.8-8-14.7c-2.5-2.5-5.9-6.6-15-6.6
		S1.5,18.8,1.5,34.2c0,6.3,2.3,21.2,25.8,21.2c0,0-2.1,7.6-2.1,19.7c0,4.9,5.1,15.3,12.9,7.6s6.6-31.1,6.6-31.1s1.9,2.4,5.1,2.4
		c3.8,0,7.6-5.9,7.6-13.9c0-7.1-4.2-10.2-4.2-10.2s2.9-2.5,4.9-2.5c2.1,0,3.6,1.2,3.6,1.2s-2.2,6.2-2.2,9s0.3,11.2,4,11.2
		s4.4-5.5,4.4-11.8s-2.1-9.3-2.1-9.3s1.3-4,3.4-4c2.4,0,3.4,15.9,11,15.9c4.6,0,7-5.9,7-5.9s6,1.4,11.4-4c5.4-5.4,7.5-15.4,7.5-15.4
		s0.4,3.2,2.7,3.2s3.7-5.1,3.7-5.1c0.9,3.4,0.1,15.9,0.1,15.9s-5.6,2.6-16.6,13.6c-29.6,29.6-14.9,43.6,5.5,23.2
		c8.9-8.9,12.9-22.3,14.2-34.4C118.2,29.3,119.1,28.2,118,27z M39.9,47.6c0,0-2.2,1.6-6.7,2.7c0.7-1.8,2.7-7,5.7-10.3
		C39.6,42.5,39.9,45.1,39.9,47.6z M24.7,51.2C14.4,51.2,6.1,47.3,6.1,34S13,15.3,17.5,15.3c4.5,0,7.7,0.7,11.9,4.9
		c2.6,2.6,5.9,8.1,8.2,14.6c-3.5,4.1-7.1,12-8.9,16.3C27.4,51.2,26.1,51.2,24.7,51.2z M36.4,80c-5.8,5.8-7.6-3.1-7.6-11.1
		c0-4.7,1.5-10.3,2.8-14.1c3.8-1,7-3.2,8.7-4.5C40.6,55.6,41.4,75,36.4,80z M53.9,41.6c0,6.4-3.2,8.8-4.5,8.8
		c-1.2,0-3.4-2.2-3.4-8.2c0-6,3.8-9.2,3.8-9.2S53.9,35.1,53.9,41.6z M63.4,46.5c-1,0-1.2-3.8-1.2-6.3c0-3.6,1.8-7.4,1.8-7.4
		S65,35,65,38.8S64.4,46.5,63.4,46.5z M84.6,28.8c0,0-3.2-3.8-3.2-8.5c0-3.9,0.9-4.5,1.9-3.5C86.4,19.9,84.6,28.8,84.6,28.8z
		 M84.6,71.5c-4.4-4.4,9.5-20.9,14.5-26c10.4-10.4,13.2-12.1,13.2-12.1C112.2,56.1,89.4,76.3,84.6,71.5z"/>
	<path d="M112.8,28.5"/>
	<path d="M51.2,86.4c-2.2-2.2-1.7-17.8,1.2-17.8s9.4,11.4,8.3,12.6C59.1,82.8,54.1,72,53,72c-0.4,0-0.8,11.7,0.5,13
		C54.9,86.4,53.1,88.4,51.2,86.4z"/>
	<path d="M54.1,79.2c-1.7-1.1,0.3-3.4,2.1-5.3c2.3-2.3,2.3-5.8,3.9-5.8c1.6,0,2.4,3.9,2.4,3.9s0.4-5.5,3-8.1c2.6-2.6-1.3,5-1.3,7.7
		c0,2.2,0.2,4.2-0.9,4.2c-1.2,0-2.6-4.9-3.2-4.9C59.5,70.9,57.1,81.1,54.1,79.2z"/>
	<path d="M73.8,52.6c4.7-4.7,3.6,0.2-0.2,4c-3.8,3.8-5.9,7.2-7.2,8.5s-1.7-1.1-1-2.6C66.4,60.3,70.5,56,73.8,52.6z"/>
	<path d="M65.5,55.4c1.6-1.6,7.8,22.4,7.3,25.2c-0.6,3.4-6.1-16.4-6.1-16.4S64.3,56.6,65.5,55.4z"/>
</g>
</svg>
