<svg enable-background="new 0 0 120 90" viewBox="0 0 120 90" xmlns="http://www.w3.org/2000/svg"><path d="m118 27c-.4-.4-1-.4-1.7-.2.9-13.3-1.2-24.1-2.8-24.1-3.2 0-2 11.8-4.4 11.8s.6-10-2.8-10-2.9 13.8-8.3 19.2c0 0 1.8-11.7-.1-13.6-3.5-3.5-9.6 5.3-8.6 6.3 1.5 1.5 4.9-4.5 6.2-3.2 1 1-1.7 13.7.2 15.6-2 2-7.5 1.5-7.5 1.5s3.2-11.5-2.9-17.6c-4.5-4.5-7.7 1.8-7.7 8.3s6 11.5 6 11.5-.7 3.5-3.6 3.5c-3.6 0-4.1-15.7-11-15.7-3.4 0-5.5 4.6-5.5 4.6s-1.1-2.1-5.4-2.1c-5.1 0-10.2 5.7-10.2 5.7-4 0-6.9 2.9-6.9 2.9s-2.1-8.8-8-14.7c-2.5-2.5-5.9-6.6-15-6.6s-16.5 8.7-16.5 24.1c0 6.3 2.3 21.2 25.8 21.2 0 0-2.1 7.6-2.1 19.7 0 4.9 5.1 15.3 12.9 7.6s6.6-31.1 6.6-31.1 1.9 2.4 5.1 2.4c3.8 0 7.6-5.9 7.6-13.9 0-7.1-4.2-10.2-4.2-10.2s2.9-2.5 4.9-2.5c2.1 0 3.6 1.2 3.6 1.2s-2.2 6.2-2.2 9 .3 11.2 4 11.2 4.4-5.5 4.4-11.8-2.1-9.3-2.1-9.3 1.3-4 3.4-4c2.4 0 3.4 15.9 11 15.9 4.6 0 7-5.9 7-5.9s6 1.4 11.4-4 7.5-15.4 7.5-15.4.4 3.2 2.7 3.2 3.7-5.1 3.7-5.1c.9 3.4.1 15.9.1 15.9s-5.6 2.6-16.6 13.6c-29.6 29.6-14.9 43.6 5.5 23.2 8.9-8.9 12.9-22.3 14.2-34.4 2.5-1.4 3.4-2.5 2.3-3.7zm-78.1 20.6s-2.2 1.6-6.7 2.7c.7-1.8 2.7-7 5.7-10.3.7 2.5 1 5.1 1 7.6zm-15.2 3.6c-10.3 0-18.6-3.9-18.6-17.2s6.9-18.7 11.4-18.7 7.7.7 11.9 4.9c2.6 2.6 5.9 8.1 8.2 14.6-3.5 4.1-7.1 12-8.9 16.3-1.3.1-2.6.1-4 .1zm11.7 28.8c-5.8 5.8-7.6-3.1-7.6-11.1 0-4.7 1.5-10.3 2.8-14.1 3.8-1 7-3.2 8.7-4.5.3 5.3 1.1 24.7-3.9 29.7zm17.5-38.4c0 6.4-3.2 8.8-4.5 8.8-1.2 0-3.4-2.2-3.4-8.2s3.8-9.2 3.8-9.2 4.1 2.1 4.1 8.6zm9.5 4.9c-1 0-1.2-3.8-1.2-6.3 0-3.6 1.8-7.4 1.8-7.4s1 2.2 1 6-.6 7.7-1.6 7.7zm21.2-17.7s-3.2-3.8-3.2-8.5c0-3.9.9-4.5 1.9-3.5 3.1 3.1 1.3 12 1.3 12zm0 42.7c-4.4-4.4 9.5-20.9 14.5-26 10.4-10.4 13.2-12.1 13.2-12.1-.1 22.7-22.9 42.9-27.7 38.1z"/><path d="m51.2 86.4c-2.2-2.2-1.7-17.8 1.2-17.8s9.4 11.4 8.3 12.6c-1.6 1.6-6.6-9.2-7.7-9.2-.4 0-.8 11.7.5 13 1.4 1.4-.4 3.4-2.3 1.4z"/><path d="m54.1 79.2c-1.7-1.1.3-3.4 2.1-5.3 2.3-2.3 2.3-5.8 3.9-5.8s2.4 3.9 2.4 3.9.4-5.5 3-8.1-1.3 5-1.3 7.7c0 2.2.2 4.2-.9 4.2-1.2 0-2.6-4.9-3.2-4.9s-3 10.2-6 8.3z"/><path d="m73.8 52.6c4.7-4.7 3.6.2-.2 4s-5.9 7.2-7.2 8.5-1.7-1.1-1-2.6c1-2.2 5.1-6.5 8.4-9.9z"/><path d="m65.5 55.4c1.6-1.6 7.8 22.4 7.3 25.2-.6 3.4-6.1-16.4-6.1-16.4s-2.4-7.6-1.2-8.8z"/></svg>